<svg width="40" height="40" viewBox="0 0 40 40" fill="none" xmlns="http://www.w3.org/2000/svg">
<rect width="40" height="40" rx="20" fill="#171F26" fill-opacity="0.75"/>
<path d="M30 17.2929L24 23.2929M24 17.2929L30 23.2929M17.6343 12.6586L14.4686 15.8243C14.2957 15.9972 14.2092 16.0837 14.1083 16.1455C14.0188 16.2004 13.9213 16.2408 13.8192 16.2653C13.7041 16.2929 13.5818 16.2929 13.3373 16.2929H11.6C11.0399 16.2929 10.7599 16.2929 10.546 16.4019C10.3579 16.4978 10.2049 16.6507 10.109 16.8389C10 17.0528 10 17.3328 10 17.8929V22.6929C10 23.253 10 23.533 10.109 23.7469C10.2049 23.9351 10.3579 24.0881 10.546 24.1839C10.7599 24.2929 11.0399 24.2929 11.6 24.2929H13.3373C13.5818 24.2929 13.7041 24.2929 13.8192 24.3206C13.9213 24.3451 14.0188 24.3855 14.1083 24.4403C14.2092 24.5021 14.2957 24.5886 14.4686 24.7616L17.6343 27.9272C18.0627 28.3556 18.2769 28.5698 18.4608 28.5843C18.6203 28.5968 18.7763 28.5322 18.8802 28.4105C19 28.2703 19 27.9674 19 27.3616V13.2243C19 12.6184 19 12.3155 18.8802 12.1753C18.7763 12.0536 18.6203 11.989 18.4608 12.0015C18.2769 12.016 18.0627 12.2302 17.6343 12.6586Z" stroke="white" stroke-width="2" stroke-linecap="round" stroke-linejoin="round"/>
</svg>
