<svg width="40" height="40" viewBox="0 0 40 40" fill="none" xmlns="http://www.w3.org/2000/svg">
<rect width="40" height="40" rx="20" fill="#171F26" fill-opacity="0.75"/>
<path d="M27.7479 13.3252C29.1652 15.3446 30 17.8224 30 20.5C30 23.1776 29.1652 25.6554 27.7479 27.6748M23.7453 16.4001C24.5362 17.5622 25 18.9756 25 20.5C25 22.0244 24.5362 23.4377 23.7453 24.5999M17.6343 12.675L14.4686 15.9198C14.2957 16.097 14.2092 16.1857 14.1083 16.2491C14.0188 16.3053 13.9213 16.3467 13.8192 16.3718C13.7041 16.4001 13.5818 16.4001 13.3373 16.4001H11.6C11.0399 16.4001 10.7599 16.4001 10.546 16.5118C10.3579 16.6101 10.2049 16.7669 10.109 16.9597C10 17.179 10 17.466 10 18.0401V22.9599C10 23.534 10 23.821 10.109 24.0402C10.2049 24.2331 10.3579 24.3899 10.546 24.4881C10.7599 24.5999 11.0399 24.5999 11.6 24.5999H13.3373C13.5818 24.5999 13.7041 24.5999 13.8192 24.6283C13.9213 24.6534 14.0188 24.6948 14.1083 24.7509C14.2092 24.8143 14.2957 24.9029 14.4686 25.0803L17.6343 28.3249C18.0627 28.764 18.2769 28.9836 18.4608 28.9984C18.6203 29.0112 18.7763 28.945 18.8802 28.8203C19 28.6766 19 28.3661 19 27.7452V13.2548C19 12.6339 19 12.3234 18.8802 12.1797C18.7763 12.0549 18.6203 11.9887 18.4608 12.0016C18.2769 12.0164 18.0627 12.236 17.6343 12.675Z" stroke="white" stroke-width="2" stroke-linecap="round" stroke-linejoin="round"/>
</svg>
